<svg xmlns="http://www.w3.org/2000/svg" version="1.1" xmlns:xlink="http://www.w3.org/1999/xlink" preserveAspectRatio="none" x="0px" y="0px" width="781" height="328" viewBox="0 0 781 328">
    <defs>
        <radialGradient id="Gradient_1" gradientUnits="userSpaceOnUse" cx="0" cy="0" r="175.67499999999995" fx="0" fy="0" gradientTransform="matrix( 1.0000000000000002, 0, 0, 0.3268108723495091, 645,885) " spreadMethod="pad">
            <stop offset="0%" stop-color="#878787"/>
            <stop offset="100%" stop-color="#838383" stop-opacity="0"/>
        </radialGradient>
        <filter id="Filter_1" x="-20%" y="-20%" width="140%" height="140%" color-interpolation-filters="sRGB">
            <feColorMatrix in="SourceGraphic" type="matrix" values="1 0 0 0 0 0 1 0 0 0 0 0 1 0 0 0 0 0 0.21 0" result="result1"/>
        </filter>
        <filter id="Filter_2" x="-20%" y="-20%" width="140%" height="140%" color-interpolation-filters="sRGB">
            <feColorMatrix in="SourceGraphic" type="matrix" values="1 0 0 0 0 0 1 0 0 0 0 0 1 0 0 0 0 0 0.18 0" result="result1"/>
        </filter>
        <g id="Layer0_0_FILL">
            <path fill="url(#Gradient_1)" stroke="none" d="
M 645 820
Q 564.25 820 507.1 839.05 450 858.1 450 885 450 911.9 507.1 930.95 564.25 950 645 950 725.75 950 782.85 930.95 840 911.9 840 885 840 858.1 782.85 839.05 725.75 820 645 820 Z"/>
        </g>
        <g id="Layer0_1_MEMBER_0_FILL">
            <path fill="#ECEDEE" stroke="none" d="
M 113.4 4.75
Q 113.8 4.35 114.15 4.05
L 114.1 4.05
Q 113.75 4.35 113.4 4.75
M 635.65 4.05
Q 636 4.35 636.4 4.75 636.05 4.35 635.7 4.05
L 635.65 4.05
M 640.7 12.35
L 638.55 8.05 111.25 8.05 109.1 12.35 108.6 14.1
Q 108.5 14.6 108.4 15.15
L 641.4 15.15
Q 641.3 14.6 641.2 14.1
L 640.7 12.35 Z"/>
            <path fill="#B4B5B6" stroke="none" d="
M 634.85 269.8
L 636.35 268.5
Q 636.9 267.9 637.45 267.35
L 639.05 264.95 110.75 264.95 112.35 267.35
Q 112.9 267.9 113.45 268.5
L 114.95 269.8
Q 115.15 269.95 115.3 270.1 116.1 270.65 116.95 271.05
L 118.15 271.55
Q 119.6 272 121.1 272
L 628.7 272
Q 630.2 272 631.65 271.55
L 632.85 271.05
Q 633.7 270.65 634.5 270.1 634.65 269.95 634.85 269.8 Z"/>
            <path fill="#CECFD0" stroke="none" d="
M 641.65 257.8
L 641.4 257.8 108.4 257.8 108.15 257.8
Q 108.95 261.85 110.75 264.95
L 639.05 264.95
Q 640.85 261.85 641.65 257.8 Z"/>
            <path fill="#F5F6F7" stroke="none" d="
M 641.55 16.1
Q 641.5 15.65 641.4 15.15
L 108.4 15.15
Q 108.3 15.65 108.25 16.1 104.15 41.55 102 71.8 99.75 103.1 99.75 136.45 99.75 169.9 102 201.2 104.15 231.45 108.25 256.85 108.3 257.35 108.4 257.8
L 641.4 257.8
Q 641.5 257.35 641.55 256.85 645.65 231.45 647.8 201.2 650.05 169.9 650.05 136.45 650.05 103.1 647.8 71.8 645.65 41.55 641.55 16.1 Z"/>
            <path fill="#F3F4F5" stroke="none" d="
M 638.55 8.05
L 638.85 8.05
Q 638.2 7 637.45 6.05 637.15 5.6 636.85 5.25 636.75 5.1 636.6 4.95
L 636.4 4.75
Q 636 4.35 635.65 4.05 635 3.4 634.25 2.9 631.7 1.1 628.85 1 628.65 1 628.5 1
L 121.3 1
Q 121.15 1 120.95 1 118.1 1.1 115.55 2.9 114.8 3.4 114.15 4.05 113.8 4.35 113.4 4.75
L 113.2 4.95
Q 113.05 5.1 112.95 5.25 112.65 5.6 112.35 6.05 111.6 7 110.95 8.05
L 111.25 8.05 638.55 8.05 Z"/>
        </g>
        <g id="Layer0_1_MEMBER_1_MEMBER_0_MEMBER_0_FILL">
            <path fill="#30302F" stroke="none" d="
M 437.25 371.95
Q 436.7 371.95 436.3 372.35 435.9 372.75 435.9 373.3
L 435.9 387.7 448.9 387.7 448.9 373.3
Q 448.9 372.75 448.5 372.35 448.1 371.95 447.55 371.95
L 437.25 371.95 Z"/>
        </g>
        <g id="Layer0_1_MEMBER_1_MEMBER_0_MEMBER_1_FILL">
            <path fill="#30302F" stroke="none" d="
M 437.25 371.95
Q 436.7 371.95 436.3 372.35 435.9 372.75 435.9 373.3
L 435.9 387.7 448.9 387.7 448.9 373.3
Q 448.9 372.75 448.5 372.35 448.1 371.95 447.55 371.95
L 437.25 371.95 Z"/>
        </g>
        <g id="Layer0_1_MEMBER_1_MEMBER_0_MEMBER_2_FILL">
            <path fill="#30302F" stroke="none" d="
M 1251.2 452.9
Q 1231.85 452.9 1216.85 460.55
L 1216.85 475.85 1260.05 475.85
Q 1261.7 475.85 1262.9 474.65 1264.1 473.45 1264.1 471.8
L 1264.1 453.95
Q 1258.25 452.9 1251.2 452.9 Z"/>
        </g>
        <g id="Layer0_1_MEMBER_1_MEMBER_0_MEMBER_3_FILL">
            <path fill="#40484C" stroke="none" d="
M 1260.05 475.85
Q 1261.7 475.85 1262.9 474.65 1264.1 473.45 1264.1 471.8
L 1264.1 453.95
Q 1258.25 452.9 1251.2 452.9 1231.85 452.9 1210.95 461.45
L 1175.65 475.85 1260.05 475.85 Z"/>
        </g>
        <g id="Layer0_1_MEMBER_1_MEMBER_1_FILL">
            <path fill="#CCFF00" stroke="none" d="
M 587.7 105.15
Q 588.05 104.8 589.5 104.8 590.85 104.8 591.25 105.1 591.6 105.45 591.6 106.6 591.6 107.85 591.25 108.15 590.85 108.45 588.85 108.8 586.45 109.2 585.8 109.8 585.15 110.4 585.15 112.2
L 585.15 114.5 593.75 114.5 593.75 112.8 587.3 112.8 587.3 112.5
Q 587.3 111.3 587.65 111.05 587.95 110.8 589.95 110.4 592.4 110 593.05 109.3 593.75 108.65 593.75 106.65 593.75 104.55 592.85 103.85 591.95 103.1 589.5 103.1 586.95 103.1 586.1 103.8 585.2 104.55 585.2 106.7
L 585.2 107.15 587.3 107.15 587.3 106.7
Q 587.3 105.45 587.7 105.15
M 600.15 104.8
Q 601.5 104.8 601.9 105.1 602.25 105.45 602.25 106.6 602.25 107.85 601.9 108.15 601.5 108.45 599.5 108.8 597.1 109.2 596.45 109.8 595.8 110.4 595.8 112.2
L 595.8 114.5 604.4 114.5 604.4 112.8 597.95 112.8 597.95 112.5
Q 597.95 111.3 598.3 111.05 598.6 110.8 600.6 110.4 603.05 110 603.7 109.3 604.4 108.65 604.4 106.65 604.4 104.55 603.5 103.85 602.6 103.1 600.15 103.1 597.6 103.1 596.75 103.8 595.85 104.55 595.85 106.7
L 595.85 107.15 597.95 107.15 597.95 106.7
Q 597.95 105.45 598.35 105.15 598.7 104.8 600.15 104.8
M 608.5 109.35
Q 609.95 109.35 610.4 108.85 610.85 108.3 610.85 106.6 610.85 105.05 610.4 104.55 609.9 104.1 608.45 104.1 606.9 104.1 606.45 104.55 605.95 105.05 605.95 106.7 605.95 108.35 606.45 108.85 606.9 109.35 608.5 109.35
M 608.4 105.05
Q 609.2 105.05 609.4 105.35 609.6 105.6 609.6 106.6 609.6 107.75 609.4 108.1 609.2 108.4 608.4 108.4 607.6 108.4 607.4 108.1 607.2 107.8 607.2 106.65 607.2 105.6 607.45 105.35 607.65 105.05 608.4 105.05 Z"/>
        </g>
        <g id="Layer0_1_MEMBER_2_MEMBER_0_FILL">
            <path fill="#231F20" stroke="none" d="
M 1588.45 430.85
Q 1583.35 435.95 1580.55 442.55 1577.65 449.4 1577.65 456.9 1577.65 464.4 1580.55 471.25 1583.35 477.9 1588.45 483 1593.55 488.1 1600.15 490.9 1607 493.8 1614.5 493.8 1629.5 493.8 1640.25 483.35 1650.95 472.9 1651.35 457.95 1650.95 440.95 1640.25 430.5 1629.5 420.05 1614.5 420.05 1607 420.05 1600.15 422.95 1593.55 425.75 1588.45 430.85 Z"/>
        </g>
        <g id="Layer0_1_MEMBER_2_MEMBER_1_MEMBER_0_MEMBER_0_MEMBER_0_MEMBER_0_FILL">
            <path fill="#E6E7E8" stroke="none" d="
M 698.15 559.65
Q 698.15 579.1 711.9 592.9 725.7 606.65 745.15 606.65 764.65 606.65 778.4 592.9 792.15 579.1 792.15 559.65 792.15 540.2 778.4 526.4 764.65 512.65 745.15 512.65 725.7 512.65 711.9 526.4 698.15 540.2 698.15 559.65 Z"/>
        </g>
        <g id="Layer0_1_MEMBER_2_MEMBER_1_MEMBER_0_MEMBER_0_MEMBER_0_MEMBER_1_FILL">
            <path fill="#FFFFFF" stroke="none" d="
M 698.15 559.65
Q 698.15 579.1 711.9 592.9 725.7 606.65 745.15 606.65
L 745.15 512.65
Q 725.7 512.65 711.9 526.4 698.15 540.2 698.15 559.65 Z"/>
        </g>
        <g id="Layer0_1_MEMBER_2_MEMBER_1_MEMBER_0_MEMBER_0_MEMBER_0_MEMBER_2_FILL">
            <path fill="#808285" stroke="none" d="
M 778.4 592.9
Q 792.15 579.1 792.15 559.65 792.15 540.2 778.4 526.4 764.65 512.65 745.15 512.65
L 745.15 606.65
Q 764.65 606.65 778.4 592.9 Z"/>
        </g>
        <g id="Layer0_1_MEMBER_2_MEMBER_1_MEMBER_0_MEMBER_0_MEMBER_0_MEMBER_3_FILL">
            <path fill="#D1D3D4" stroke="none" d="
M 701.1 559.65
Q 701.1 577.9 714 590.8 726.95 603.7 745.15 603.7 763.4 603.7 776.3 590.8 789.2 577.9 789.2 559.65 789.2 541.4 776.3 528.5 763.4 515.6 745.15 515.6 726.9 515.6 714 528.5 701.1 541.4 701.1 559.65 Z"/>
        </g>
        <g id="Layer0_1_MEMBER_2_MEMBER_1_MEMBER_0_MEMBER_0_MEMBER_1_FILL">
            <path fill="#E6E7E8" stroke="none" d="
M 698.15 559.65
Q 698.15 579.1 711.9 592.9 725.7 606.65 745.15 606.65 764.65 606.65 778.4 592.9 792.15 579.1 792.15 559.65 792.15 540.2 778.4 526.4 764.65 512.65 745.15 512.65 725.7 512.65 711.9 526.4 698.15 540.2 698.15 559.65 Z"/>
        </g>
        <g id="flash0_ai_0_Layer_3_copy__Path__3_0_0_Layer0_0_FILL">
            <path fill="#000000" stroke="none" d="
M 33.25 13.75
Q 19.5 0 0 0
L 0 94
Q 19.5 94 33.25 80.25 47 66.45 47 47 47 27.55 33.25 13.75 Z"/>
        </g>
        <g id="Layer0_1_MEMBER_2_MEMBER_1_MEMBER_0_MEMBER_0_MEMBER_3_FILL">
            <path fill="#D1D3D4" stroke="none" d="
M 701.1 559.65
Q 701.1 577.9 714 590.8 726.95 603.7 745.15 603.7 763.4 603.7 776.3 590.8 789.2 577.9 789.2 559.65 789.2 541.4 776.3 528.5 763.4 515.6 745.15 515.6 726.9 515.6 714 528.5 701.1 541.4 701.1 559.65 Z"/>
        </g>
        <g id="flash0_ai_0_Layer_3_copy__Path__1_2_0_Layer0_0_FILL">
            <path fill="#231F20" stroke="none" d="
M 13.7 77.3
Q 28.4 74.75 38.55 63.65 48.75 52.55 50 37.5
L 12.45 0 0 68.05 13.7 77.3 Z"/>
        </g>
        <g id="Layer0_1_MEMBER_2_MEMBER_1_MEMBER_0_MEMBER_0_MEMBER_5_FILL">
            <path fill="#E6E7E8" stroke="none" d="
M 753.95 531.75
Q 753.95 528.15 751.35 525.6 748.8 523 745.15 523 741.55 523 739 525.6 736.4 528.15 736.4 531.75
L 736.4 587.5
Q 736.4 591.15 739 593.7 741.55 596.3 745.15 596.3 748.8 596.3 751.35 593.7 753.95 591.15 753.95 587.5
L 753.95 531.75 Z"/>
        </g>
        <g id="Layer0_1_MEMBER_2_MEMBER_1_MEMBER_0_MEMBER_1_FILL">
            <path fill="#841220" stroke="none" d="
M 749.2 531.7
Q 749.2 530.05 748 528.85 746.85 527.65 745.15 527.65 743.5 527.65 742.35 528.85 741.15 530.05 741.15 531.7 741.15 533.4 742.35 534.55 743.5 535.75 745.15 535.75 746.85 535.75 748 534.55 749.2 533.4 749.2 531.7 Z"/>
        </g>
        <g id="Layer0_1_MEMBER_2_MEMBER_1_MEMBER_1_FILL">
            <path fill="#FF1547" stroke="none" d="
M 1627.95 511.4
L 1625.8 515
Q 1629.1212890625 516.8853515625 1631.8 519.75 1635.35 523.55 1637.15 528.35 1638.9 533.05 1638.75 538.2
L 1644.85 538.2
Q 1644.65 531.9 1642.15 526.3 1639.6 520.7 1635.15 516.45 1631.8951171875 513.3779296875 1627.95 511.4 Z"/>
            <path fill="#FFC917" stroke="none" d="
M 1593.15 516.85
Q 1592.8794921875 517.1568359375 1592.6 517.45 1588.7 521.65 1586.7 526.8 1586.65 526.95 1586.6 527.1 1584.55 532.5 1584.75 538.2
L 1585.15 538.2
Q 1585.35 532.6 1587.6 527.55 1587.7 527.4 1587.75 527.25 1590.05 522.4 1593.9 518.75 1594.2212890625 518.4525390625 1594.55 518.15
L 1593.15 516.85 Z"/>
            <path fill="#FF7017" stroke="none" d="
M 1606.75 512
Q 1609.95 511.3 1613.35 511.4 1618.75 511.6 1623.5 513.8 1624.7029296875 514.3375 1625.8 515
L 1627.95 511.4
Q 1626.530859375 510.67734375 1625 510.1 1619.3 507.95 1613.35 508.15 1609.5 508.25 1605.9 509.3 1603.9 509.9 1602 510.75 1597.019140625 513.030859375 1593.15 516.85
L 1594.55 518.15
Q 1598.3505859375 514.84921875 1603 513.1 1604.85 512.4 1606.75 512 Z"/>
        </g>
        <g id="Layer0_1_MEMBER_3_FILL">
            <path fill="#40484C" stroke="none" d="
M 1182.15 418.5
L 1180.4 422 1201.15 422 1199.65 418.5 1182.15 418.5
M 1177.15 411
L 1176.15 409.25 1175.65 407.75 1157.9 407.75 1157.4 409.25 1156.4 411 1177.15 411
M 1177.15 416.5
L 1175.65 413.25 1157.9 413.25 1156.4 416.5 1177.15 416.5
M 1176.15 420
L 1175.65 418.5 1157.9 418.5 1157.4 420 1156.4 422 1177.15 422 1176.15 420
M 1176.15 398.25
L 1175.65 396.75 1157.9 396.75 1157.4 398.25 1156.4 400 1177.15 400 1176.15 398.25
M 1176.15 403.75
L 1175.65 402.25 1157.9 402.25 1157.4 403.75 1156.4 405.5 1177.15 405.5 1176.15 403.75
M 1201.15 411
L 1199.65 407.75 1182.15 407.75 1180.4 411 1201.15 411
M 1200.4 414.5
L 1199.65 413.25 1182.15 413.25 1180.4 416.5 1201.15 416.5 1200.4 414.5
M 1201.15 400
L 1199.65 396.75 1182.15 396.75 1180.4 400 1201.15 400
M 1201.15 405.5
L 1199.65 402.25 1182.15 402.25 1180.4 405.5 1201.15 405.5
M 1233.4 416.5
L 1231.9 413.25 1214.15 413.25 1213.4 414.5 1212.65 416.5 1233.4 416.5
M 1232.4 420
L 1231.9 418.5 1214.15 418.5 1212.65 422 1233.4 422 1232.4 420
M 1233.4 411
L 1232.4 409.25 1231.9 407.75 1214.15 407.75 1212.65 411 1233.4 411
M 1233.4 405.5
L 1232.4 403.75 1231.9 402.25 1214.15 402.25 1212.65 405.5 1233.4 405.5
M 1233.4 400
L 1232.4 398.25 1231.9 396.75 1214.15 396.75 1212.65 400 1233.4 400
M 1257.4 422
L 1255.9 418.5 1238.15 418.5 1237.65 420 1236.65 422 1257.4 422
M 1270.4 418.5
L 1268.9 422 1289.4 422 1287.9 418.5 1270.4 418.5
M 1257.4 411
L 1255.9 407.75 1238.15 407.75 1237.65 409.25 1236.65 411 1257.4 411
M 1256.65 414.5
L 1255.9 413.25 1238.15 413.25 1236.65 416.5 1257.4 416.5 1256.65 414.5
M 1257.4 405.5
L 1255.9 402.25 1238.15 402.25 1237.65 403.75 1236.65 405.5 1257.4 405.5
M 1257.4 400
L 1255.9 396.75 1238.15 396.75 1237.65 398.25 1236.65 400 1257.4 400
M 1289.4 411
L 1287.9 407.75 1270.4 407.75 1268.9 411 1289.4 411
M 1289.4 416.5
L 1288.65 414.5 1287.9 413.25 1270.4 413.25 1269.65 414.5 1268.9 416.5 1289.4 416.5
M 1289.4 400
L 1287.9 396.75 1270.4 396.75 1268.9 400 1289.4 400
M 1289.4 405.5
L 1287.9 402.25 1270.4 402.25 1268.9 405.5 1289.4 405.5
M 1270.4 391.25
L 1268.9 394.5 1289.4 394.5 1287.9 391.25 1270.4 391.25
M 1238.15 391.25
L 1237.65 392.75 1236.65 394.5 1257.4 394.5 1255.9 391.25 1238.15 391.25
M 1214.15 391.25
L 1212.65 394.5 1233.4 394.5 1232.4 392.75 1231.9 391.25 1214.15 391.25
M 1182.15 391.25
L 1180.4 394.5 1201.15 394.5 1199.65 391.25 1182.15 391.25
M 1157.9 391.25
L 1157.4 392.75 1156.4 394.5 1177.15 394.5 1176.15 392.75 1175.65 391.25 1157.9 391.25
M 1313.65 422
L 1312.15 418.5 1294.65 418.5 1293.65 420
Q 1293.65 420.75 1292.9 422
L 1313.65 422
M 1313.65 416.5
L 1312.9 414.5
Q 1312.15 414.25 1312.15 413.25
L 1294.65 413.25
Q 1294.15 413.5 1293.65 414.5 1293.65 415 1292.9 416.5
L 1313.65 416.5
M 1313.65 411
L 1312.15 407.75 1294.65 407.75
Q 1294.4 408 1293.65 409.25
L 1292.9 411 1313.65 411
M 1313.65 405.5
L 1312.15 402.25 1294.65 402.25 1293.65 403.75
Q 1293.65 404 1292.9 405.5
L 1313.65 405.5
M 1313.65 400
L 1312.15 396.75 1294.65 396.75 1293.65 398.25
Q 1293.65 398.5 1292.9 400
L 1313.65 400
M 1345.65 422
L 1344.15 418.5 1326.4 418.5 1325.9 420 1324.9 422 1345.65 422
M 1350.65 418.5
L 1349.15 422 1369.9 422 1368.15 418.5 1350.65 418.5
M 1345.65 411
L 1344.15 407.75 1326.4 407.75 1325.9 409.25 1324.9 411 1345.65 411
M 1344.9 414.5
L 1344.15 413.25 1326.4 413.25 1324.9 416.5 1345.65 416.5 1344.9 414.5
M 1345.65 400
L 1344.15 396.75 1326.4 396.75 1325.9 398.25 1324.9 400 1345.65 400
M 1345.65 405.5
L 1344.15 402.25 1326.4 402.25 1325.9 403.75 1324.9 405.5 1345.65 405.5
M 1369.9 416.5
L 1368.15 413.25 1350.65 413.25 1349.9 414.5 1349.15 416.5 1369.9 416.5
M 1369.9 411
L 1368.15 407.75 1350.65 407.75 1349.15 411 1369.9 411
M 1369.9 400
L 1368.15 396.75 1350.65 396.75 1349.15 400 1369.9 400
M 1369.9 405.5
L 1368.15 402.25 1350.65 402.25 1349.15 405.5 1369.9 405.5
M 1382.9 418.5
L 1381.15 422 1401.9 422 1400.4 418.5 1382.9 418.5
M 1401.9 411
L 1400.4 407.75 1382.9 407.75
Q 1382.15 408.25 1382.15 409.25
L 1381.15 411 1401.9 411
M 1401.15 414.5
Q 1400.65 413.5 1400.4 413.25
L 1382.9 413.25
Q 1382.15 413.75 1382.15 414.5
L 1381.15 416.5 1401.9 416.5 1401.15 414.5
M 1401.9 400
L 1400.4 396.75 1382.9 396.75 1381.15 400 1401.9 400
M 1401.9 405.5
L 1400.4 402.25 1382.9 402.25 1381.15 405.5 1401.9 405.5
M 1426.15 422
L 1424.4 418.5 1406.9 418.5 1405.15 422 1426.15 422
M 1426.15 405.5
L 1424.4 402.25 1406.9 402.25 1405.15 405.5 1426.15 405.5
M 1426.15 400
L 1424.4 396.75 1406.9 396.75 1405.15 400 1426.15 400
M 1426.15 416.5
L 1424.4 413.25 1406.9 413.25 1405.15 416.5 1426.15 416.5
M 1426.15 411
L 1424.4 407.75 1406.9 407.75 1405.15 411 1426.15 411
M 1438.4 407.75
L 1437.9 409.25 1436.9 411 1457.65 411 1456.15 407.75 1438.4 407.75
M 1457.65 416.5
L 1456.9 414.5 1456.15 413.25 1438.4 413.25 1436.9 416.5 1457.65 416.5
M 1438.4 418.5
L 1437.9 420 1436.9 422 1457.65 422 1456.15 418.5 1438.4 418.5
M 1457.65 400
L 1456.15 396.75 1438.4 396.75 1437.9 398.25 1436.9 400 1457.65 400
M 1457.65 405.5
L 1456.15 402.25 1438.4 402.25 1437.9 403.75 1436.9 405.5 1457.65 405.5
M 1462.65 418.5
L 1461.15 422 1481.9 422 1480.15 418.5 1462.65 418.5
M 1481.9 411
L 1480.15 407.75 1462.65 407.75 1461.15 411 1481.9 411
M 1481.9 416.5
L 1480.15 413.25 1462.65 413.25 1461.9 414.5 1461.15 416.5 1481.9 416.5
M 1481.9 405.5
L 1480.15 402.25 1462.65 402.25 1461.15 405.5 1481.9 405.5
M 1481.9 400
L 1480.15 396.75 1462.65 396.75 1461.15 400 1481.9 400
M 1513.9 422
L 1512.4 418.5 1494.9 418.5 1493.15 422 1513.9 422
M 1513.9 400
L 1512.4 396.75 1494.9 396.75 1493.15 400 1513.9 400
M 1513.9 405.5
L 1512.4 402.25 1494.9 402.25 1493.15 405.5 1513.9 405.5
M 1513.9 416.5
L 1513.15 414.5
Q 1512.65 413.5 1512.4 413.25
L 1494.9 413.25
Q 1494.15 413.75 1494.15 414.5
L 1493.15 416.5 1513.9 416.5
M 1513.9 411
L 1512.4 407.75 1494.9 407.75
Q 1494.15 408.25 1494.15 409.25
L 1493.15 411 1513.9 411
M 1536.4 418.5
L 1518.9 418.5 1517.15 422 1538.15 422 1536.4 418.5
M 1536.4 407.75
L 1518.9 407.75 1517.15 411 1538.15 411 1536.4 407.75
M 1538.15 416.5
L 1536.4 413.25 1518.9 413.25 1517.15 416.5 1538.15 416.5
M 1538.15 400
L 1536.4 396.75 1518.9 396.75 1517.15 400 1538.15 400
M 1538.15 405.5
L 1536.4 402.25 1518.9 402.25 1517.15 405.5 1538.15 405.5
M 1550.4 418.5
L 1548.65 422 1569.4 422 1567.9 418.5 1550.4 418.5
M 1569.4 400
L 1567.9 396.75 1550.4 396.75 1548.65 400 1569.4 400
M 1569.4 405.5
L 1567.9 402.25 1550.4 402.25 1548.65 405.5 1569.4 405.5
M 1569.4 411
L 1567.9 407.75 1550.4 407.75
Q 1549.65 408.25 1549.65 409.25
L 1548.65 411 1569.4 411
M 1568.65 414.5
Q 1568.15 413.5 1567.9 413.25
L 1550.4 413.25
Q 1549.65 413.75 1549.65 414.5
L 1548.65 416.5 1569.4 416.5 1568.65 414.5
M 1593.65 405.5
L 1591.9 402.25 1574.4 402.25 1572.65 405.5 1593.65 405.5
M 1593.65 400
L 1591.9 396.75 1574.4 396.75 1572.65 400 1593.65 400
M 1593.65 416.5
L 1591.9 413.25 1574.4 413.25 1572.65 416.5 1593.65 416.5
M 1593.65 411
L 1591.9 407.75 1574.4 407.75 1572.65 411 1593.65 411
M 1593.65 422
L 1591.9 418.5 1574.4 418.5 1572.65 422 1593.65 422
M 1574.4 391.25
L 1572.65 394.5 1593.65 394.5 1591.9 391.25 1574.4 391.25
M 1550.4 391.25
L 1548.65 394.5 1569.4 394.5 1567.9 391.25 1550.4 391.25
M 1518.9 391.25
L 1517.15 394.5 1538.15 394.5 1536.4 391.25 1518.9 391.25
M 1462.65 391.25
L 1461.15 394.5 1481.9 394.5 1480.15 391.25 1462.65 391.25
M 1494.9 391.25
L 1493.15 394.5 1513.9 394.5 1512.4 391.25 1494.9 391.25
M 1438.4 391.25
L 1437.9 392.75 1436.9 394.5 1457.65 394.5 1456.15 391.25 1438.4 391.25
M 1406.9 391.25
L 1405.15 394.5 1426.15 394.5 1424.4 391.25 1406.9 391.25
M 1382.9 391.25
L 1381.15 394.5 1401.9 394.5 1400.4 391.25 1382.9 391.25
M 1350.65 391.25
L 1349.15 394.5 1369.9 394.5 1368.15 391.25 1350.65 391.25
M 1326.4 391.25
L 1325.9 392.75 1324.9 394.5 1345.65 394.5 1344.15 391.25 1326.4 391.25
M 1313.65 394.5
L 1312.15 391.25 1294.65 391.25 1293.65 392.75
Q 1293.65 393 1292.9 394.5
L 1313.65 394.5 Z"/>
        </g>
        <path id="Layer0_1_MEMBER_0_1_STROKES" stroke="#000000" stroke-width="2" stroke-linejoin="round" stroke-linecap="round" fill="none" d="
M 641.4 15.15
Q 641.3 14.6 641.2 14.1
L 640.7 12.35 638.55 8.05
M 111.25 8.05
L 109.1 12.35 108.6 14.1
Q 108.5 14.6 108.4 15.15
M 641.4 15.15
Q 641.5 15.65 641.55 16.1 645.65 41.55 647.8 71.8 650.05 103.1 650.05 136.45 650.05 169.9 647.8 201.2 645.65 231.45 641.55 256.85 641.5 257.35 641.4 257.8
L 641.65 257.8
Q 640.85 261.85 639.05 264.95
L 637.45 267.35
Q 636.9 267.9 636.35 268.5
L 634.85 269.8
Q 634.65 269.95 634.5 270.1 633.7 270.65 632.85 271.05
L 631.65 271.55
Q 630.2 272 628.7 272
L 121.1 272
Q 119.6 272 118.15 271.55
L 116.95 271.05
Q 116.1 270.65 115.3 270.1 115.15 269.95 114.95 269.8
L 113.45 268.5
Q 112.9 267.9 112.35 267.35
L 110.75 264.95
Q 108.95 261.85 108.15 257.8
L 108.4 257.8
Q 108.3 257.35 108.25 256.85 104.15 231.45 102 201.2 99.75 169.9 99.75 136.45 99.75 103.1 102 71.8 104.15 41.55 108.25 16.1 108.3 15.65 108.4 15.15
M 638.55 8.05
L 638.85 8.05
Q 638.2 7 637.45 6.05 637.15 5.6 636.85 5.25 636.75 5.1 636.6 4.95
L 636.4 4.75
M 635.65 4.05
Q 635 3.4 634.25 2.9 631.7 1.1 628.85 1 628.65 1 628.5 1
L 121.3 1
Q 121.15 1 120.95 1 118.1 1.1 115.55 2.9 114.8 3.4 114.15 4.05
M 113.4 4.75
L 113.2 4.95
Q 113.05 5.1 112.95 5.25 112.65 5.6 112.35 6.05 111.6 7 110.95 8.05
L 111.25 8.05"/>
    </defs>
    <g transform="matrix( 2.00299072265625, 0, 0, 1.3445281982421875, -901.35,-948.9) ">
        <use xlink:href="#Layer0_0_FILL"/>
    </g>
    <g transform="matrix( 1, 0, 0, 1, 0,0) ">
        <use xlink:href="#Layer0_1_MEMBER_0_FILL"/>
        <use xlink:href="#Layer0_1_MEMBER_0_1_STROKES"/>
    </g>
    <g transform="matrix( 0, 1.5, -2.1794281005859375, 0, 1440.65,-555.45) ">
        <use xlink:href="#Layer0_1_MEMBER_1_MEMBER_0_MEMBER_0_FILL"/>
    </g>
    <g transform="matrix( 0, -1.5, 2.1794281005859375, 0, -246.95,771.7) ">
        <use xlink:href="#Layer0_1_MEMBER_1_MEMBER_0_MEMBER_1_FILL"/>
    </g>
    <g transform="matrix( -0.726470947265625, 0, 0, -0.5, 1481.95,336.3) ">
        <use xlink:href="#Layer0_1_MEMBER_1_MEMBER_0_MEMBER_2_FILL"/>
    </g>
    <g transform="matrix( 0.726470947265625, 0, 0, 0.5, -288.3,-120.05) ">
        <use xlink:href="#Layer0_1_MEMBER_1_MEMBER_0_MEMBER_3_FILL"/>
    </g>
    <g transform="matrix( 1, 0, 0, 1, 0,0) ">
        <use xlink:href="#Layer0_1_MEMBER_1_MEMBER_1_FILL"/>
    </g>
    <g transform="matrix( 0.5999908447265625, 0, 0, 0.5999908447265625, -370.5,-123.7) ">
        <use xlink:href="#Layer0_1_MEMBER_2_MEMBER_0_FILL"/>
    </g>
    <g transform="matrix( 0.29998779296875, 0, 0, 0.29998779296875, 373.9,-16.65) ">
        <use xlink:href="#Layer0_1_MEMBER_2_MEMBER_1_MEMBER_0_MEMBER_0_MEMBER_0_MEMBER_0_FILL"/>
    </g>
    <g transform="matrix( 0.29998779296875, 0, 0, 0.29998779296875, 373.9,-16.65) ">
        <use xlink:href="#Layer0_1_MEMBER_2_MEMBER_1_MEMBER_0_MEMBER_0_MEMBER_0_MEMBER_1_FILL"/>
    </g>
    <g transform="matrix( 0.29998779296875, 0, 0, 0.29998779296875, 373.9,-16.65) ">
        <use xlink:href="#Layer0_1_MEMBER_2_MEMBER_1_MEMBER_0_MEMBER_0_MEMBER_0_MEMBER_2_FILL"/>
    </g>
    <g transform="matrix( 0.29998779296875, 0, 0, 0.29998779296875, 373.9,-16.65) ">
        <use xlink:href="#Layer0_1_MEMBER_2_MEMBER_1_MEMBER_0_MEMBER_0_MEMBER_0_MEMBER_3_FILL"/>
    </g>
    <g transform="matrix( 0.29998779296875, 0, 0, 0.29998779296875, 373.9,-16.65) ">
        <use xlink:href="#Layer0_1_MEMBER_2_MEMBER_1_MEMBER_0_MEMBER_0_MEMBER_1_FILL"/>
    </g>
    <g transform="matrix( 0.29998779296875, 0, 0, 0.29998779296875, 597.45,137.15) ">
        <g transform="matrix( 1, 0, 0, 1, 0,0) ">
            <use filter="url(#Filter_1)" xlink:href="#flash0_ai_0_Layer_3_copy__Path__3_0_0_Layer0_0_FILL"/>
        </g>
    </g>
    <g transform="matrix( 0.29998779296875, 0, 0, 0.29998779296875, 373.9,-16.65) ">
        <use xlink:href="#Layer0_1_MEMBER_2_MEMBER_1_MEMBER_0_MEMBER_0_MEMBER_3_FILL"/>
    </g>
    <g transform="matrix( 0.29998779296875, 0, 0, 0.29998779296875, 595.65,141.05) ">
        <g transform="matrix( 1, 0, 0, 1, 0,0) ">
            <use filter="url(#Filter_2)" xlink:href="#flash0_ai_0_Layer_3_copy__Path__1_2_0_Layer0_0_FILL"/>
        </g>
    </g>
    <g transform="matrix( 0.29998779296875, 0, 0, 0.29998779296875, 373.9,-16.65) ">
        <use xlink:href="#Layer0_1_MEMBER_2_MEMBER_1_MEMBER_0_MEMBER_0_MEMBER_5_FILL"/>
    </g>
    <g transform="matrix( 0.29998779296875, 0, 0, 0.29998779296875, 373.9,-16.65) ">
        <use xlink:href="#Layer0_1_MEMBER_2_MEMBER_1_MEMBER_0_MEMBER_1_FILL"/>
    </g>
    <g transform="matrix( 0.5999908447265625, 0, 0, 0.5999908447265625, -370.2,-171.7) ">
        <use xlink:href="#Layer0_1_MEMBER_2_MEMBER_1_MEMBER_1_FILL"/>
    </g>
    <g transform="matrix( 1, 0, 0, 1, -1005.25,-384.45) ">
        <use xlink:href="#Layer0_1_MEMBER_3_FILL"/>
    </g>
</svg>
